<mxfile host="Electron" agent="Mozilla/5.0 (Windows NT 10.0; Win64; x64) AppleWebKit/537.36 (KHTML, like Gecko) draw.io/28.1.2 Chrome/138.0.7204.243 Electron/37.4.0 Safari/537.36" version="28.1.2">
  <diagram name="PÃ¡gina-1" id="pwwZOTQseyLAjFoGXYzI">
    <mxGraphModel dx="1042" dy="1795" grid="1" gridSize="10" guides="1" tooltips="1" connect="1" arrows="1" fold="1" page="1" pageScale="1" pageWidth="827" pageHeight="1169" background="none" math="0" shadow="1">
      <root>
        <mxCell id="0" />
        <mxCell id="1" parent="0" />
        <mxCell id="OUbdCKQ4gkh9fwFBkwXK-1" value="Actor" style="shape=umlActor;verticalLabelPosition=bottom;verticalAlign=top;html=1;outlineConnect=0;fillColor=#1ba1e2;fontColor=#ffffff;strokeColor=#006EAF;" vertex="1" parent="1">
          <mxGeometry x="359" y="444" width="30" height="60" as="geometry" />
        </mxCell>
        <mxCell id="OUbdCKQ4gkh9fwFBkwXK-6" value="" style="verticalLabelPosition=bottom;html=1;verticalAlign=top;strokeWidth=1;align=center;outlineConnect=0;dashed=0;outlineConnect=0;shape=mxgraph.aws3d.client;aspect=fixed;strokeColor=#2D7600;fillColor=#60a917;fontColor=#ffffff;" vertex="1" parent="1">
          <mxGeometry x="140" y="385" width="60" height="104" as="geometry" />
        </mxCell>
        <mxCell id="OUbdCKQ4gkh9fwFBkwXK-7" value="" style="verticalLabelPosition=bottom;html=1;verticalAlign=top;strokeWidth=1;align=center;outlineConnect=0;dashed=0;outlineConnect=0;shape=mxgraph.aws3d.ebs2;fillColor=#e51400;strokeColor=#B20000;aspect=fixed;strokeColor2=#292929;fontColor=#ffffff;" vertex="1" parent="1">
          <mxGeometry x="230" y="173.21" width="92" height="60" as="geometry" />
        </mxCell>
        <mxCell id="OUbdCKQ4gkh9fwFBkwXK-10" value="" style="verticalLabelPosition=bottom;html=1;verticalAlign=top;strokeWidth=1;align=center;outlineConnect=0;dashed=0;outlineConnect=0;shape=mxgraph.aws3d.ebs2;fillColor=#e51400;strokeColor=#B20000;aspect=fixed;strokeColor2=#292929;fontColor=#ffffff;" vertex="1" parent="1">
          <mxGeometry x="690" y="173.21" width="92" height="60" as="geometry" />
        </mxCell>
        <mxCell id="OUbdCKQ4gkh9fwFBkwXK-11" value="" style="verticalLabelPosition=bottom;html=1;verticalAlign=top;strokeWidth=1;align=center;outlineConnect=0;dashed=0;outlineConnect=0;shape=mxgraph.aws3d.rds;fillColor=#1ba1e2;strokeColor=#006EAF;aspect=fixed;strokeColor2=#292929;strokeColor3=#ffffff;fontColor=#ffffff;" vertex="1" parent="1">
          <mxGeometry x="570" y="10" width="70" height="75.68" as="geometry" />
        </mxCell>
        <mxCell id="OUbdCKQ4gkh9fwFBkwXK-15" value="" style="ellipse;shape=cloud;whiteSpace=wrap;html=1;shadow=0;fillColor=#f8cecc;strokeColor=#b85450;" vertex="1" parent="1">
          <mxGeometry x="10" y="-50" width="230" height="120" as="geometry" />
        </mxCell>
        <mxCell id="OUbdCKQ4gkh9fwFBkwXK-22" value="" style="edgeStyle=orthogonalEdgeStyle;html=1;endArrow=none;elbow=vertical;startArrow=open;startFill=0;strokeColor=#BD7000;rounded=0;fillColor=#f0a30a;enumerate=1;flowAnimation=1;" edge="1" parent="1">
          <mxGeometry width="100" relative="1" as="geometry">
            <mxPoint x="219" y="473.5" as="sourcePoint" />
            <mxPoint x="319" y="473.5" as="targetPoint" />
            <Array as="points">
              <mxPoint x="359" y="473.5" />
              <mxPoint x="359" y="473.5" />
            </Array>
          </mxGeometry>
        </mxCell>
        <mxCell id="OUbdCKQ4gkh9fwFBkwXK-25" value="EC2" style="text;strokeColor=none;align=center;fillColor=none;html=1;verticalAlign=middle;whiteSpace=wrap;rounded=0;" vertex="1" parent="1">
          <mxGeometry x="473.5" y="240" width="60" height="30" as="geometry" />
        </mxCell>
        <mxCell id="OUbdCKQ4gkh9fwFBkwXK-26" value="RDS" style="text;strokeColor=none;align=center;fillColor=none;html=1;verticalAlign=middle;whiteSpace=wrap;rounded=0;" vertex="1" parent="1">
          <mxGeometry x="575" y="85.68" width="60" height="30" as="geometry" />
        </mxCell>
        <mxCell id="OUbdCKQ4gkh9fwFBkwXK-27" value="ENVIAR ARQUIVO&lt;div&gt;&lt;br&gt;&lt;/div&gt;" style="text;strokeColor=none;align=center;fillColor=none;html=1;verticalAlign=middle;whiteSpace=wrap;rounded=0;" vertex="1" parent="1">
          <mxGeometry x="120" y="263.21000000000004" width="60" height="30" as="geometry" />
        </mxCell>
        <mxCell id="OUbdCKQ4gkh9fwFBkwXK-34" value="" style="edgeStyle=elbowEdgeStyle;elbow=horizontal;endArrow=classic;html=1;curved=0;rounded=0;endSize=8;startSize=8;fillColor=#f0a30a;strokeColor=#BD7000;flowAnimation=1;enumerate=1;" edge="1" parent="1" source="OUbdCKQ4gkh9fwFBkwXK-6">
          <mxGeometry width="50" height="50" relative="1" as="geometry">
            <mxPoint x="132" y="250" as="sourcePoint" />
            <mxPoint x="220" y="200" as="targetPoint" />
            <Array as="points">
              <mxPoint x="172" y="260" />
            </Array>
          </mxGeometry>
        </mxCell>
        <mxCell id="OUbdCKQ4gkh9fwFBkwXK-36" value="" style="edgeStyle=elbowEdgeStyle;elbow=horizontal;endArrow=classic;html=1;curved=0;rounded=0;endSize=8;startSize=8;" edge="1" parent="1" source="OUbdCKQ4gkh9fwFBkwXK-9">
          <mxGeometry width="50" height="50" relative="1" as="geometry">
            <mxPoint x="480" y="250" as="sourcePoint" />
            <mxPoint x="530" y="200" as="targetPoint" />
          </mxGeometry>
        </mxCell>
        <mxCell id="OUbdCKQ4gkh9fwFBkwXK-9" value="" style="verticalLabelPosition=bottom;html=1;verticalAlign=top;strokeWidth=1;align=center;outlineConnect=0;dashed=0;outlineConnect=0;shape=mxgraph.aws3d.application_server;fillColor=#fa6800;strokeColor=#C73500;aspect=fixed;strokeColor2=#292929;fontColor=#000000;" vertex="1" parent="1">
          <mxGeometry x="467" y="159.62000000000003" width="73" height="73.59" as="geometry" />
        </mxCell>
        <mxCell id="OUbdCKQ4gkh9fwFBkwXK-38" value="" style="edgeStyle=elbowEdgeStyle;elbow=horizontal;endArrow=classic;html=1;curved=0;rounded=0;endSize=8;startSize=8;entryX=0;entryY=0.396;entryDx=0;entryDy=0;entryPerimeter=0;fillColor=#f0a30a;strokeColor=#BD7000;flowAnimation=1;enumerate=1;" edge="1" parent="1" target="OUbdCKQ4gkh9fwFBkwXK-11">
          <mxGeometry width="50" height="50" relative="1" as="geometry">
            <mxPoint x="503.5" y="159.62" as="sourcePoint" />
            <mxPoint x="520" y="40" as="targetPoint" />
            <Array as="points">
              <mxPoint x="500" y="40" />
            </Array>
          </mxGeometry>
        </mxCell>
        <mxCell id="OUbdCKQ4gkh9fwFBkwXK-40" value="AWS" style="text;strokeColor=#001DBC;align=center;fillColor=#0050ef;html=1;verticalAlign=middle;whiteSpace=wrap;rounded=0;fontColor=#ffffff;" vertex="1" parent="1">
          <mxGeometry x="90" width="60" height="30" as="geometry" />
        </mxCell>
        <mxCell id="OUbdCKQ4gkh9fwFBkwXK-42" value="D-EBS&lt;div&gt;&lt;br&gt;&lt;/div&gt;" style="text;strokeColor=none;align=center;fillColor=none;html=1;verticalAlign=middle;whiteSpace=wrap;rounded=0;shadow=0;glass=0;" vertex="1" parent="1">
          <mxGeometry x="240" y="240" width="60" height="30" as="geometry" />
        </mxCell>
        <mxCell id="OUbdCKQ4gkh9fwFBkwXK-43" value="E-EBS&lt;div&gt;&lt;br&gt;&lt;/div&gt;" style="text;strokeColor=none;align=center;fillColor=none;html=1;verticalAlign=middle;whiteSpace=wrap;rounded=0;" vertex="1" parent="1">
          <mxGeometry x="710" y="240" width="60" height="30" as="geometry" />
        </mxCell>
        <mxCell id="OUbdCKQ4gkh9fwFBkwXK-44" value="CLIENTE" style="text;strokeColor=none;align=center;fillColor=none;html=1;verticalAlign=middle;whiteSpace=wrap;rounded=0;" vertex="1" parent="1">
          <mxGeometry x="400" y="459" width="60" height="30" as="geometry" />
        </mxCell>
        <mxCell id="OUbdCKQ4gkh9fwFBkwXK-49" value="" style="endArrow=none;dashed=1;html=1;dashPattern=1 3;strokeWidth=2;rounded=0;" edge="1" parent="1">
          <mxGeometry width="50" height="50" relative="1" as="geometry">
            <mxPoint x="90" y="360" as="sourcePoint" />
            <mxPoint x="800" y="360" as="targetPoint" />
          </mxGeometry>
        </mxCell>
        <mxCell id="OUbdCKQ4gkh9fwFBkwXK-50" value="" style="endArrow=none;dashed=1;html=1;dashPattern=1 3;strokeWidth=2;rounded=0;" edge="1" parent="1">
          <mxGeometry width="50" height="50" relative="1" as="geometry">
            <mxPoint x="800" y="360" as="sourcePoint" />
            <mxPoint x="800" y="10" as="targetPoint" />
          </mxGeometry>
        </mxCell>
        <mxCell id="OUbdCKQ4gkh9fwFBkwXK-51" value="" style="endArrow=none;dashed=1;html=1;dashPattern=1 3;strokeWidth=2;rounded=0;exitX=0.929;exitY=0.408;exitDx=0;exitDy=0;exitPerimeter=0;" edge="1" parent="1" source="OUbdCKQ4gkh9fwFBkwXK-15">
          <mxGeometry width="50" height="50" relative="1" as="geometry">
            <mxPoint x="480" y="250" as="sourcePoint" />
            <mxPoint x="800" as="targetPoint" />
          </mxGeometry>
        </mxCell>
        <mxCell id="OUbdCKQ4gkh9fwFBkwXK-52" value="" style="endArrow=none;dashed=1;html=1;dashPattern=1 3;strokeWidth=2;rounded=0;entryX=0.31;entryY=0.8;entryDx=0;entryDy=0;entryPerimeter=0;" edge="1" parent="1" target="OUbdCKQ4gkh9fwFBkwXK-15">
          <mxGeometry width="50" height="50" relative="1" as="geometry">
            <mxPoint x="80" y="350" as="sourcePoint" />
            <mxPoint x="60" y="80" as="targetPoint" />
          </mxGeometry>
        </mxCell>
        <mxCell id="OUbdCKQ4gkh9fwFBkwXK-53" value="" style="endArrow=classic;html=1;rounded=0;fillColor=#f0a30a;strokeColor=#BD7000;flowAnimation=1;orthogonalLoop=0;enumerate=1;" edge="1" parent="1">
          <mxGeometry width="50" height="50" relative="1" as="geometry">
            <mxPoint x="550" y="200" as="sourcePoint" />
            <mxPoint x="680" y="200" as="targetPoint" />
          </mxGeometry>
        </mxCell>
        <mxCell id="OUbdCKQ4gkh9fwFBkwXK-55" value="" style="edgeStyle=orthogonalEdgeStyle;html=1;endArrow=none;elbow=vertical;startArrow=block;startFill=1;strokeColor=#BD7000;rounded=0;fillColor=#f0a30a;flowAnimation=1;enumerate=1;" edge="1" parent="1">
          <mxGeometry width="100" relative="1" as="geometry">
            <mxPoint x="340" y="195.92000000000002" as="sourcePoint" />
            <mxPoint x="460" y="196" as="targetPoint" />
          </mxGeometry>
        </mxCell>
      </root>
    </mxGraphModel>
  </diagram>
</mxfile>
